# xmcd
# 
# Track frame offsets:
#     182
#     24295
#     47312
#     64800
#     79940
#     101677
#     113995
#     131567
#     147310
#     163910
#     180035
# 
# Disc length: 2573
# 
# Revision: 1
# Processed by: cddbd v1.5.2PL0 Copyright (c) Steve Scherf et al.
# Submitted via: BonkEnc v1.0.6
# 
DISCID=8a0a0b0b
DTITLE=Per Frost - Breakin' ice
DYEAR=1995
DGENRE=Blues
TTITLE0=Wishes
TTITLE1=Sweet child
TTITLE2=Shelter our love
TTITLE3=Sundays
TTITLE4=Only a hobo
TTITLE5=French postcard
TTITLE6=Autumn gold
TTITLE7=Walk this line
TTITLE8=Water line
TTITLE9=Sandra
TTITLE10=Blues for Ida
EXTD=
EXTT0=
EXTT1=
EXTT2=
EXTT3=
EXTT4=
EXTT5=
EXTT6=
EXTT7=
EXTT8=
EXTT9=
EXTT10=
PLAYORDER=
